# xmcd
#
# Track frame offsets: 
#        182
#        23487
#        49525
#        66852
#        83907
#        105012
#        119567
#        134580
#        149330
#        165230
#        183395
#
# Disc length: 2709 seconds
#
# Revision: 9
# Processed by: cddbd v1.5.2PL0 Copyright (c) Steve Scherf et al.
# Submitted via: ExactAudioCopy v0.95b4
#
DISCID=890a930b
DTITLE=Nitty Gritty Dirt Band - Twenty Years Of Dirt - The Best Of The
DTITLE=Nitty Gritty Dirt Band
DYEAR=1986
DGENRE=Country
TTITLE0=Mr. Bojangles
TTITLE1=Ripplin' Waters
TTITLE2=American Dream
TTITLE3=Make A Little Magic
TTITLE4=Fire In The Sky
TTITLE5=Dance Little Jean
TTITLE6=Long Hard Road (The Sharecropper's Dream)
TTITLE7=High Horse
TTITLE8=Modern Day Romance
TTITLE9=Partners, Brothers and Friends
TTITLE10=Stand a Little Rain
EXTD=LABEL =Warner Bros. Records Inc.\nID =925382-2\nUPC =none\nCOP
EXTD=YRIGHT =1986
EXTT0=
EXTT1=
EXTT2=
EXTT3=
EXTT4=
EXTT5=
EXTT6=
EXTT7=
EXTT8=
EXTT9=
EXTT10=
PLAYORDER=
